<?xml version="1.0" encoding="utf-8"?><svg xmlns="http://www.w3.org/2000/svg" xmlns:xlink="http://www.w3.org/1999/xlink" width="1536" height="754" preserveAspectRatio="xMidYMid" viewBox="0 0 1536 754" style="z-index:1;margin-right:-2px;display:block;background-repeat-y:initial;background-repeat-x:initial;background-color:rgb(241, 242, 243);animation-play-state:paused" ><g transform="translate(768,377) scale(1,1) translate(-768,-377)" style="transform:matrix(1, 0, 0, 1, 0, 0);animation-play-state:paused" ><linearGradient id="lg-0.36624336394450574" x1="0" x2="1" y1="0" y2="0" style="animation-play-state:paused" ><stop stop-color="#2fb7bd" offset="0" style="animation-play-state:paused" ></stop>

  
<stop stop-color="#0085ff" offset="1" style="animation-play-state:paused" ></stop></linearGradient>
<path d="M 0 0 L 0 731.429 Q 153.6 633.408 307.2 613.113 T 614.4 497.083 T 921.6 477.337 T 1228.8 360.389 T 1536 283.193 L 1536 0 Z" fill="url(#lg-0.36624336394450574)" opacity="0.4" style="opacity:0.4;animation-play-state:paused" ></path>
<path d="M 0 0 L 0 726.962 Q 153.6 654.692 307.2 622.824 T 614.4 523.247 T 921.6 438.814 T 1228.8 369.527 T 1536 325.898 L 1536 0 Z" fill="url(#lg-0.36624336394450574)" opacity="0.4" style="opacity:0.4;animation-play-state:paused" ></path>
<path d="M 0 0 L 0 677.697 Q 153.6 596.992 307.2 565.805 T 614.4 601.554 T 921.6 447.672 T 1228.8 442.82 T 1536 335.219 L 1536 0 Z" fill="url(#lg-0.36624336394450574)" opacity="0.4" style="opacity:0.4;animation-play-state:paused" ></path>
<path d="M 0 0 L 0 629.341 Q 153.6 708.963 307.2 664.569 T 614.4 505.387 T 921.6 459.188 T 1228.8 387.125 T 1536 336.437 L 1536 0 Z" fill="url(#lg-0.36624336394450574)" opacity="0.4" style="opacity:0.4;animation-play-state:paused" ></path>
<path d="M 0 0 L 0 738.237 Q 153.6 670.903 307.2 633.468 T 614.4 528.365 T 921.6 480.532 T 1228.8 427.729 T 1536 350.719 L 1536 0 Z" fill="url(#lg-0.36624336394450574)" opacity="0.4" style="opacity:0.4;animation-play-state:paused" ></path></g></svg>